<svg width="29" height="28" viewBox="0 0 29 28" fill="none" xmlns="http://www.w3.org/2000/svg">
<path fill-rule="evenodd" clip-rule="evenodd" d="M22.5201 8.50747H7.03009C6.8847 8.50747 6.76684 8.62657 6.76684 8.77349V17.0193C6.76684 20.5944 9.63482 23.4925 13.1727 23.4925H16.3775C19.9153 23.4925 22.7833 20.5944 22.7833 17.0193V8.77349C22.7833 8.62657 22.6655 8.50747 22.5201 8.50747ZM7.03009 7C6.06083 7 5.27508 7.79402 5.27508 8.77349V17.0193C5.27508 21.4269 8.81094 25 13.1727 25H16.3775C20.7392 25 24.2751 21.4269 24.2751 17.0193V8.77349C24.2751 7.79402 23.4893 7 22.5201 7H7.03009Z" fill="#282828"/>
<path fill-rule="evenodd" clip-rule="evenodd" d="M10.2751 5.95496C10.2751 3.7707 12.2898 2 14.7751 2C17.2604 2 19.2751 3.77069 19.2751 5.95496V10.3153C19.2751 10.6935 18.9263 11 18.496 11C18.0658 11 17.717 10.6935 17.717 10.3153V5.95496C17.717 4.52699 16.3998 3.36939 14.7751 3.36939C13.1503 3.36939 11.8332 4.52699 11.8332 5.95496V10.3153C11.8332 10.6935 11.4844 11 11.0541 11C10.6239 11 10.2751 10.6935 10.2751 10.3153V5.95496Z" fill="#282828"/>
</svg>
