<svg width="11" height="11" viewBox="0 0 11 11" fill="none" xmlns="http://www.w3.org/2000/svg">
<path fill-rule="evenodd" clip-rule="evenodd" d="M0.983041 3.52906C1.74303 1.78963 3.47904 0.572937 5.5 0.572937C7.52095 0.572937 9.25696 1.78963 10.0169 3.52906C10.093 3.70303 10.0135 3.90567 9.83958 3.98168C9.66561 4.05769 9.46296 3.97828 9.38695 3.80431C8.73243 2.30626 7.23797 1.26044 5.5 1.26044C3.76203 1.26044 2.26756 2.30626 1.61303 3.80432C1.53702 3.97828 1.33438 4.05769 1.16041 3.98168C0.986442 3.90567 0.907032 3.70303 0.983041 3.52906Z" fill="white"/>
<path fill-rule="evenodd" clip-rule="evenodd" d="M5.25936 2.96284C5.39303 2.8318 5.60697 2.8318 5.74064 2.96284C6.65241 3.85666 7.21875 5.10325 7.21875 6.48148C7.21875 6.60458 7.21422 6.7267 7.20534 6.84765C7.19924 6.93061 7.16326 7.00855 7.10408 7.06701C6.32555 7.83602 5.84375 8.90308 5.84375 10.0833C5.84375 10.2732 5.68985 10.4271 5.5 10.4271C5.31015 10.4271 5.15625 10.2732 5.15625 10.0833C5.15625 8.90308 4.67445 7.83602 3.89592 7.06701C3.83674 7.00855 3.80076 6.93061 3.79466 6.84765C3.78578 6.7267 3.78125 6.60458 3.78125 6.48148C3.78125 5.10325 4.34759 3.85666 5.25936 2.96284ZM5.5 8.27186C5.73715 7.67233 6.08848 7.13045 6.527 6.67324C6.52982 6.60968 6.53125 6.54575 6.53125 6.48148C6.53125 5.42181 6.14284 4.45334 5.5 3.70994C4.85716 4.45334 4.46875 5.42181 4.46875 6.48148C4.46875 6.54575 4.47018 6.60968 4.473 6.67324C4.91152 7.13045 5.26285 7.67233 5.5 8.27186Z" fill="white"/>
<path fill-rule="evenodd" clip-rule="evenodd" d="M0.572914 5.5C0.572914 5.31015 0.726816 5.15625 0.916664 5.15625C2.26618 5.15625 3.48956 5.69926 4.37906 6.57792L4.13749 6.82247L4.37906 6.57792C5.28299 7.47079 5.84375 8.71189 5.84375 10.0833C5.84375 10.2732 5.68985 10.4271 5.5 10.4271C2.77884 10.4271 0.572914 8.22115 0.572914 5.5ZM1.27537 5.8587C1.44756 7.91403 3.08597 9.55243 5.1413 9.72462C5.05449 8.68775 4.59475 7.75731 3.89592 7.06703L3.89591 7.06703C3.20956 6.38903 2.29383 5.94396 1.27537 5.8587Z" fill="white"/>
<path fill-rule="evenodd" clip-rule="evenodd" d="M9.72462 5.8587C8.70617 5.94396 7.79044 6.38903 7.10408 7.06703L7.10408 7.06703C6.40525 7.75731 5.94551 8.68775 5.8587 9.72462C7.91403 9.55243 9.55243 7.91403 9.72462 5.8587ZM6.62094 6.57792C7.51043 5.69926 8.73382 5.15625 10.0833 5.15625C10.2732 5.15625 10.4271 5.31015 10.4271 5.5C10.4271 8.22115 8.22115 10.4271 5.5 10.4271C5.31015 10.4271 5.15625 10.2732 5.15625 10.0833C5.15625 8.71189 5.71701 7.47079 6.62094 6.57792ZM6.62094 6.57792L6.86251 6.82247L6.62094 6.57792Z" fill="white"/>
</svg>
