<svg width="29" height="28" viewBox="0 0 29 28" fill="none" xmlns="http://www.w3.org/2000/svg">
<path d="M12.483 25.0833L12.7457 24.3809L12.7457 24.3809L12.483 25.0833ZM6.27617 18.4583L5.62093 18.8232L5.62093 18.8232L6.27617 18.4583ZM6.83845 15.8323L6.36994 15.2467L6.36992 15.2467L6.83845 15.8323ZM9.81345 15.9971L10.3438 15.4668L10.3438 15.4668L9.81345 15.9971ZM10.733 16.9167L10.2027 17.447C10.4172 17.6615 10.7398 17.7257 11.02 17.6096C11.3003 17.4935 11.483 17.22 11.483 16.9167H10.733ZM12.8997 13.7083C12.8997 14.1226 13.2355 14.4583 13.6497 14.4583C14.0639 14.4583 14.3997 14.1226 14.3997 13.7083H12.8997ZM15.8163 14.875C15.8163 15.2892 16.1521 15.625 16.5663 15.625C16.9806 15.625 17.3163 15.2892 17.3163 14.875H15.8163ZM18.733 16.0417C18.733 16.4559 19.0688 16.7917 19.483 16.7917C19.8972 16.7917 20.233 16.4559 20.233 16.0417H18.733ZM21.8855 22.3829L22.4984 22.8152L22.4984 22.8152L21.8855 22.3829ZM18.8997 25.0833L18.6042 24.394L18.6042 24.394L18.8997 25.0833ZM7.76334 4.71968C7.47045 4.42679 6.99558 4.42679 6.70268 4.71968C6.40979 5.01257 6.40979 5.48745 6.70268 5.78034L7.76334 4.71968ZM8.45268 7.53034C8.74558 7.82323 9.22045 7.82323 9.51334 7.53034C9.80624 7.23745 9.80624 6.76257 9.51334 6.46968L8.45268 7.53034ZM12.0561 2.21004C11.988 1.80147 11.6016 1.52545 11.193 1.59355C10.7845 1.66164 10.5085 2.04807 10.5766 2.45664L12.0561 2.21004ZM11.1599 5.95664C11.228 6.36522 11.6144 6.64124 12.023 6.57314C12.4316 6.50504 12.7076 6.11862 12.6395 5.71004L11.1599 5.95664ZM16.607 5.0827C16.8368 4.73806 16.7437 4.2724 16.399 4.04264C16.0544 3.81287 15.5887 3.90601 15.359 4.25065L16.607 5.0827ZM14.1923 6.00065C13.9625 6.3453 14.0557 6.81095 14.4003 7.04071C14.745 7.27048 15.2106 7.17735 15.4404 6.8327L14.1923 6.00065ZM12.7457 24.3809C11.5474 23.9327 10.3848 22.9098 9.35227 21.6775C8.33076 20.4582 7.49436 19.1042 6.93141 18.0934L5.62093 18.8232C6.20878 19.8787 7.09744 21.3218 8.20248 22.6408C9.29651 23.9466 10.6619 25.203 12.2203 25.7858L12.7457 24.3809ZM6.93141 18.0934C6.62777 17.5482 6.77072 16.847 7.30698 16.418L6.36992 15.2467C5.31138 16.0935 4.93086 17.5841 5.62093 18.8232L6.93141 18.0934ZM7.30695 16.418C7.89737 15.9457 8.74847 15.9928 9.28312 16.5274L10.3438 15.4668C9.26865 14.3917 7.55717 14.2969 6.36994 15.2467L7.30695 16.418ZM9.28312 16.5274L10.2027 17.447L11.2633 16.3863L10.3438 15.4668L9.28312 16.5274ZM11.483 16.9167V10.2083H9.98301V16.9167H11.483ZM11.483 10.2083C11.483 9.81715 11.8002 9.50001 12.1913 9.50001V8.00001C10.9717 8.00001 9.98301 8.98872 9.98301 10.2083H11.483ZM12.1913 9.50001C12.5825 9.50001 12.8997 9.81715 12.8997 10.2083H14.3997C14.3997 8.98872 13.411 8.00001 12.1913 8.00001V9.50001ZM12.8997 10.2083V13.7083H14.3997V10.2083H12.8997ZM14.3997 13.7083C14.3997 13.3171 14.7168 13 15.108 13V11.5C13.8884 11.5 12.8997 12.4887 12.8997 13.7083H14.3997ZM15.108 13C15.4992 13 15.8163 13.3171 15.8163 13.7083H17.3163C17.3163 12.4887 16.3276 11.5 15.108 11.5V13ZM15.8163 13.7083V14.875H17.3163V13.7083H15.8163ZM17.3163 14.875C17.3163 14.4838 17.6335 14.1667 18.0247 14.1667V12.6667C16.8051 12.6667 15.8163 13.6554 15.8163 14.875H17.3163ZM18.0247 14.1667C18.4159 14.1667 18.733 14.4838 18.733 14.875H20.233C20.233 13.6554 19.2443 12.6667 18.0247 12.6667V14.1667ZM18.733 14.875V16.0417H20.233V14.875H18.733ZM20.233 16.0417C20.233 15.6505 20.5502 15.3333 20.9413 15.3333V13.8333C19.7217 13.8333 18.733 14.8221 18.733 16.0417H20.233ZM20.9413 15.3333C21.3325 15.3333 21.6497 15.6505 21.6497 16.0417H23.1497C23.1497 14.8221 22.161 13.8333 20.9413 13.8333V15.3333ZM21.6497 16.0417V20.6313H23.1497V16.0417H21.6497ZM21.6497 20.6313C21.6497 21.1362 21.5248 21.593 21.2726 21.9507L22.4984 22.8152C22.9658 22.1524 23.1497 21.3752 23.1497 20.6313H21.6497ZM21.2726 21.9506C20.6882 22.7792 19.716 23.9176 18.6042 24.394L19.1951 25.7727C20.7142 25.1217 21.8886 23.6797 22.4984 22.8152L21.2726 21.9506ZM18.6042 24.394C17.6542 24.8011 16.7857 25.0103 15.8746 25.019C14.9596 25.0277 13.9589 24.8346 12.7457 24.3809L12.2203 25.7858C13.5563 26.2855 14.7432 26.5298 15.8888 26.5189C17.0382 26.508 18.1035 26.2405 19.1951 25.7727L18.6042 24.394ZM6.70268 5.78034L8.45268 7.53034L9.51334 6.46968L7.76334 4.71968L6.70268 5.78034ZM10.5766 2.45664L11.1599 5.95664L12.6395 5.71004L12.0561 2.21004L10.5766 2.45664ZM15.359 4.25065L14.1923 6.00065L15.4404 6.8327L16.607 5.0827L15.359 4.25065Z" fill="#282828"/>
</svg>
